:SAMPLES-PER-SECOND 24
:FULLY-SPECIFIED
:DEGREES
195
root  -1.4727 40.7038 15.605 38.4377 15.0698 27.6691
RightUpLeg  -27.508 -20.6531 -17.7498
RightLeg  11.6941 -49.4467 1.21815
RightFoot  -12.993 0.0012283 6.425
RightToes  -1.74623e-010 0 -2.59999e-017
Spine  13.9619 -4.35676 -1.92738
Spine1  7.13737 -2.35077 -10.8861
HEad  -43.4475 52.0263 -60.173
LeftShoulder1  2.25341 -4.8425 -20.5876
LeftArm  29.7641 -21.4472 -66.5089
LeftForeArm  24.5606 -74.4745 -44.5164
LeftHand  0.548198 8.44069 21.0668
RightShoulder  3.07528 5.67224 27.5384
RightArm  5.33574 -20.1189 9.64016
RightForeArm  4.08078 32.0834 6.838
RightHand  -2.53848 7.7598 -22.4612
LeftUpLeg  -51.118 7.47641 -11.2377
LeftLeg  99.2683 0.921573 -5.99723
LeftFoot  4.761 2.11432 -15.151
LeftToes  -6.27559e-011 -2.10356e-011 8.24929e-012
196
root  -1.58885 40.637 14.9068 47.286 15.1765 34.1912
RightUpLeg  -35.7265 -25.0281 -21.1768
RightLeg  14.3475 -52.1406 -1.85585
RightFoot  -11.818 -0.0597828 4.11638
RightToes  -1.74623e-010 0 -2.59999e-017
Spine  11.153 -6.918 -2.60954
Spine1  6.49134 -4.42079 -12.0163
HEad  -46.4217 51.0573 -63.5165
LeftShoulder1  2.15127 -4.81171 -19.3764
LeftArm  29.4284 -18.9218 -66.1141
LeftForeArm  31.3215 -75.9218 -50.7093
LeftHand  0.667272 9.14276 20.795
RightShoulder  2.83803 5.25273 26.3969
RightArm  1.32018 -25.028 8.06325
RightForeArm  -1.09849 29.9688 6.58976
RightHand  -2.59528 7.23954 -23.8372
LeftUpLeg  -44.703 15.565 -5.20516
LeftLeg  107.046 1.9797 -6.514
LeftFoot  11.7174 3.79427 -18.7096
LeftToes  -6.27559e-011 -2.10356e-011 8.24929e-012
197
root  -1.31811 40.7405 14.6496 54.6649 11.6631 38.0558
RightUpLeg  -42.2445 -28.8919 -23.9419
RightLeg  11.2051 -50.1778 0.52658
RightFoot  -8.51171 -0.154267 3.90264
RightToes  -1.74623e-010 0 -2.59999e-017
Spine  8.85611 -9.03126 -3.16437
Spine1  3.8125 -5.96202 -13.6565
HEad  -49.477 50.0343 -66.5003
LeftShoulder1  2.09952 -4.66316 -19.2013
LeftArm  28.8291 -16.3674 -63.1351
LeftForeArm  38.5256 -76.9562 -56.2812
LeftHand  0.779674 10.2362 18.946
RightShoulder  2.68472 4.96819 25.6472
RightArm  -5.25453 -29.5696 6.40561
RightForeArm  -5.01059 31.0386 7.07276
RightHand  -2.68374 7.10755 -24.8631
LeftUpLeg  -31.9248 23.2672 5.64179
LeftLeg  107.951 3.02223 -9.05533
LeftFoot  12.5907 5.80527 -27.2954
LeftToes  -6.27559e-011 -2.10356e-011 8.24929e-012
198
root  -0.600024 40.7678 14.3364 59.6426 6.64156 39.7641
RightUpLeg  -48.3052 -33.1551 -25.7083
RightLeg  8.64395 -43.6924 3.47058
RightFoot  -5.06521 -0.334705 5.48404
RightToes  -1.74623e-010 0 -2.59999e-017
Spine  6.5727 -10.5151 -2.18644
Spine1  2.2351 -6.50723 -16.3134
HEad  -53.5752 48.6786 -69.4544
LeftShoulder1  2.12725 -4.47122 -20.2383
LeftArm  27.1661 -14.2716 -57.4055
LeftForeArm  48.7679 -78.1124 -65.9487
LeftHand  0.77927 11.7973 14.5723
RightShoulder  2.50859 4.67677 24.5708
RightArm  -10.43 -33.4665 6.09248
RightForeArm  -5.60817 34.6879 8.09691
RightHand  -2.54022 6.5454 -24.6425
LeftUpLeg  -11.1623 22.9591 18.4621
LeftLeg  96.5418 2.01846 -16.9184
LeftFoot  8.82514 6.36865 -35.0445
LeftToes  -6.27559e-011 -2.10356e-011 8.24929e-012
199
root  0.198469 40.4805 14.6935 62.4809 -0.325027 41.1221
RightUpLeg  -56.4768 -38.2939 -24.353
RightLeg  10.1376 -36.2784 2.74802
RightFoot  -4.42743 -0.435556 6.769
RightToes  -1.74623e-010 0 -2.59999e-017
Spine  3.15433 -10.9138 -4.02116
Spine1  1.67094 -7.39799 -17.8876
HEad  -56.8411 48.1893 -71.9755
LeftShoulder1  2.20178 -4.29507 -21.8997
LeftArm  23.909 -10.9516 -51.7588
LeftForeArm  59.4351 -78.8353 -77.8975
LeftHand  0.651546 12.5481 11.1485
RightShoulder  2.21445 4.16819 22.6633
RightArm  -13.7835 -35.5156 6.64041
RightForeArm  -1.41585 41.582 10.0362
RightHand  -2.31919 5.99181 -23.6304
LeftUpLeg  11.6481 16.5678 22.9061
LeftLeg  64.8716 -10.3602 -21.7022
LeftFoot  6.46108 6.00108 -37.287
LeftToes  -6.27559e-011 -2.10356e-011 8.24929e-012
200
root  0.704708 39.9987 14.6074 66.4088 -6.46533 43.794
RightUpLeg  -66.8175 -40.7794 -23.6213
RightLeg  13.8587 -31.0793 -1.67411
RightFoot  -5.63936 -0.363693 6.53367
RightToes  -1.74623e-010 0 -2.59999e-017
Spine  0.321491 -11.1483 -9.77938
Spine1  0.947194 -8.90843 -14.3142
HEad  -56.2372 47.8741 -72.0052
LeftShoulder1  2.27 -4.163 -23.3552
LeftArm  23.2917 -9.09203 -49.3572
LeftForeArm  59.8081 -78.8485 -78.903
LeftHand  0.504386 12.9759 8.45831
RightShoulder  2.03645 3.79819 21.6403
RightArm  -17.964 -38.5343 6.14546
RightForeArm  2.85464 50.6634 13.5899
RightHand  -2.2033 5.54375 -23.3803
LeftUpLeg  29.0377 13.8207 23.536
LeftLeg  23.3998 -16.8329 -8.31117
LeftFoot  4.49973 5.40912 -37.7701
LeftToes  -6.27559e-011 -2.10356e-011 8.24929e-012
201
root  0.656381 39.691 14.1117 71.3853 -9.60362 47.6037
RightUpLeg  -71.0583 -41.2732 -28.1728
RightLeg  13.5473 -27.7318 -3.4038
RightFoot  -6.79393 -0.213427 4.20905
RightToes  -1.74623e-010 0 -2.59999e-017
Spine  -0.569786 -11.1559 -15.9169
Spine1  0.629798 -9.73281 -9.9522
HEad  -54.1019 46.5481 -69.8622
LeftShoulder1  2.28959 -4.12155 -23.7948
LeftArm  25.1188 -9.8913 -48.9553
LeftForeArm  52.7759 -78.4686 -70.9303
LeftHand  0.287617 12.6598 5.4682
RightShoulder  2.16631 3.95063 22.8838
RightArm  -22.9043 -43.3113 6.78337
RightForeArm  3.45976 56.1687 16.7118
RightHand  -2.32482 5.51474 -24.675
LeftUpLeg  29.7146 10.1169 23.8555
LeftLeg  7.9286 -5.72574 -4.6943
LeftFoot  2.82006 4.79221 -37.4365
LeftToes  -6.27559e-011 -2.10356e-011 8.24929e-012
202
root  0.335141 39.5192 13.9347 73.5942 -9.99132 48.7612
RightUpLeg  -71.5548 -40.2738 -30.2375
RightLeg  12.5699 -25.9381 -3.80078
RightFoot  -7.50721 -0.105216 1.68685
RightToes  -1.74623e-010 0 -2.59999e-017
Spine  1.39772 -9.78537 -15.7744
Spine1  0.445134 -8.83129 -11.1567
HEad  -53.8771 44.9258 -68.8597
LeftShoulder1  2.34708 -4.23241 -24.1241
LeftArm  23.6736 -8.69644 -47.1694
LeftForeArm  48.2307 -78.0797 -65.5831
LeftHand  0.19989 11.4161 4.86357
RightShoulder  2.42796 4.35697 24.8134
RightArm  -25.1499 -43.5022 9.979
RightForeArm  3.42199 56.1744 16.7228
RightHand  -2.63213 6.4608 -25.6785
LeftUpLeg  24.1678 12.7847 26.8801
LeftLeg  15.0427 -11.8785 -5.74925
LeftFoot  0.461645 4.05562 -37.9191
LeftToes  -6.27559e-011 -2.10356e-011 8.24929e-012
203
root  0.193488 39.7951 13.7286 71.3308 -5.70572 47.6959
RightUpLeg  -65.9952 -37.2811 -30.8698
RightLeg  11.5153 -30.0488 -4.47434
RightFoot  -6.46726 -0.0471987 0.0787891
RightToes  -1.74623e-010 0 -2.59999e-017
Spine  7.75093 -9.19116 -7.24178
Spine1  -0.370261 -7.86979 -15.155
HEad  -53.3849 43.5492 -68.5787
LeftShoulder1  2.40641 -4.35425 -24.4239
LeftArm  19.8033 -5.707 -44.694
LeftForeArm  45.6124 -77.7452 -61.77
LeftHand  0.231546 10.6499 6.11045
RightShoulder  2.58921 4.6556 25.6981
RightArm  -23.5751 -37.8569 12.5945
RightForeArm  5.17646 55.323 15.9976
RightHand  -2.81982 7.51804 -25.2796
LeftUpLeg  23.0127 13.0085 31.3297
LeftLeg  21.0428 -20.7449 -8.29793
LeftFoot  0.196092 3.8951 -37.3042
LeftToes  -6.27559e-011 -2.10356e-011 8.24929e-012
204
root  -0.0147022 40.0381 13.7535 70.041 -1.09764 47.2874
RightUpLeg  -61.3884 -34.6326 -31.0584
RightLeg  12.0228 -34.4603 -6.48694
RightFoot  -6.05701 -0.00112987 -0.881535
RightToes  -1.74623e-010 0 -2.59999e-017
Spine  11.5588 -9.57754 -1.05039
Spine1  -0.436591 -7.54294 -16.8761
HEad  -50.6806 43.1193 -66.7203
LeftShoulder1  2.44802 -4.40453 -24.771
LeftArm  18.9175 -5.89961 -42.8602
LeftForeArm  39.5226 -76.7675 -54.0208
LeftHand  0.222749 10.2876 6.30512
RightShoulder  2.74875 4.92692 26.6018
RightArm  -22.0122 -32.7914 13.9794
RightForeArm  6.22167 55.7371 16.1769
RightHand  -2.86613 7.90205 -24.9672
LeftUpLeg  17.1338 13.5126 33.8029
LeftLeg  32.8268 -19.2235 -12.5371
LeftFoot  0.533202 3.76754 -35.2006
LeftToes  -6.27559e-011 -2.10356e-011 8.24929e-012
